<?xml version="1.0" encoding="UTF-8" standalone="no"?>
<!DOCTYPE svg PUBLIC "-//W3C//DTD SVG 1.1//EN"
 "http://www.w3.org/Graphics/SVG/1.1/DTD/svg11.dtd">
<!-- Generated by graphviz version 10.0.1 (0)
 -->
<!-- Title: faaasc splitting overview Pages: 1 -->
<svg width="543pt" height="887pt"
 viewBox="0.00 0.00 543.00 886.67" xmlns="http://www.w3.org/2000/svg" xmlns:xlink="http://www.w3.org/1999/xlink">
<g id="graph0" class="graph" transform="scale(1 1) rotate(0) translate(4 882.67)">
<title>faaasc splitting overview</title>
<polygon fill="white" stroke="none" points="-4,4 -4,-882.67 539,-882.67 539,4 -4,4"/>
<g id="clust1" class="cluster">
<title>cluster_input</title>
<polygon fill="none" stroke="black" points="8,-135 8,-870.67 198,-870.67 198,-135 8,-135"/>
<text text-anchor="middle" x="103" y="-853.37" font-family="Times,serif" font-size="14.00">input</text>
</g>
<g id="clust2" class="cluster">
<title>cluster_output</title>
<polygon fill="none" stroke="black" points="206,-8 206,-597.14 527,-597.14 527,-8 206,-8"/>
<text text-anchor="middle" x="366.5" y="-579.84" font-family="Times,serif" font-size="14.00">output</text>
</g>
<!-- module_in -->
<g id="node1" class="node">
<title>module_in</title>
<ellipse fill="none" stroke="black" cx="150" cy="-799.1" rx="39.07" ry="39.07"/>
<text text-anchor="middle" x="150" y="-794.05" font-family="Times,serif" font-size="14.00">module</text>
</g>
<!-- handler -->
<g id="node2" class="node">
<title>handler</title>
<polygon fill="none" stroke="green" points="80.5,-655.59 80.5,-691.59 169.5,-691.59 169.5,-655.59 80.5,-655.59"/>
<text text-anchor="middle" x="108.75" y="-668.54" font-family="Times,serif" font-size="14.00" fill="green">handler</text>
<polyline fill="none" stroke="green" points="137,-655.59 137,-691.59"/>
<text text-anchor="middle" x="153.25" y="-668.54" font-family="Times,serif" font-size="14.00" fill="green">ctx</text>
</g>
<!-- module_in&#45;&gt;handler -->
<g id="edge1" class="edge">
<title>module_in&#45;&gt;handler</title>
<path fill="none" stroke="black" d="M142.36,-760.37C138.61,-741.81 134.16,-719.82 130.7,-702.75"/>
<polygon fill="black" stroke="black" points="134.2,-702.41 128.79,-693.3 127.34,-703.8 134.2,-702.41"/>
<text text-anchor="middle" x="162.25" y="-728.74" font-family="Times,serif" font-size="14.00">has item</text>
</g>
<!-- faaasc -->
<g id="node15" class="node">
<title>faaasc</title>
<ellipse fill="none" stroke="black" cx="263" cy="-673.59" rx="33.95" ry="33.95"/>
<text text-anchor="middle" x="263" y="-668.54" font-family="Times,serif" font-size="14.00">faaasc</text>
</g>
<!-- module_in&#45;&gt;faaasc -->
<g id="edge15" class="edge">
<title>module_in&#45;&gt;faaasc</title>
<path fill="none" stroke="black" d="M175.92,-769.77C192.84,-751.28 214.98,-727.07 232.71,-707.7"/>
<polygon fill="black" stroke="black" points="235.07,-710.3 239.24,-700.56 229.9,-705.58 235.07,-710.3"/>
<text text-anchor="middle" x="227.88" y="-728.74" font-family="Times,serif" font-size="14.00">input</text>
</g>
<!-- parent_stmt -->
<g id="node3" class="node">
<title>parent_stmt</title>
<polygon fill="none" stroke="purple" points="78.75,-488.82 78.75,-562.32 147.25,-562.32 147.25,-488.82 78.75,-488.82"/>
<text text-anchor="middle" x="113" y="-545.02" font-family="Times,serif" font-size="14.00" fill="purple">...</text>
<polyline fill="none" stroke="purple" points="78.75,-537.82 147.25,-537.82"/>
<text text-anchor="middle" x="113" y="-520.52" font-family="Times,serif" font-size="14.00" fill="purple">statement</text>
<polyline fill="none" stroke="purple" points="78.75,-513.32 147.25,-513.32"/>
<text text-anchor="middle" x="113" y="-496.02" font-family="Times,serif" font-size="14.00" fill="purple">statement</text>
</g>
<!-- handler&#45;&gt;parent_stmt -->
<g id="edge2" class="edge">
<title>handler&#45;&gt;parent_stmt</title>
<path fill="none" stroke="purple" stroke-dasharray="5,2" d="M123.58,-655.26C121.93,-635.28 119.17,-601.59 116.87,-573.69"/>
<polygon fill="purple" stroke="purple" points="120.39,-573.73 116.08,-564.05 113.41,-574.3 120.39,-573.73"/>
<text text-anchor="middle" x="145.38" y="-608.34" font-family="Times,serif" font-size="14.00" fill="purple">has body</text>
</g>
<!-- use_async_directive -->
<g id="node4" class="node">
<title>use_async_directive</title>
<polygon fill="none" stroke="red" points="175.54,-433.5 66.51,-433.5 38.46,-397.5 147.49,-397.5 175.54,-433.5"/>
<text text-anchor="middle" x="107" y="-410.45" font-family="Times,serif" font-size="14.00" fill="red">use async</text>
</g>
<!-- parent_stmt&#45;&gt;use_async_directive -->
<g id="edge3" class="edge">
<title>parent_stmt&#45;&gt;use_async_directive</title>
<path fill="none" stroke="red" d="M111,-488.58C110.22,-474.48 109.33,-458.52 108.59,-445.22"/>
<polygon fill="red" stroke="red" points="112.1,-445.17 108.05,-435.38 105.11,-445.56 112.1,-445.17"/>
<text text-anchor="middle" x="121.62" y="-455.2" font-family="Times,serif" font-size="14.00" fill="red">next</text>
</g>
<!-- directive_target_stmt -->
<g id="node5" class="node">
<title>directive_target_stmt</title>
<polygon fill="none" stroke="red" points="16.12,-282.75 16.12,-331.75 189.88,-331.75 189.88,-282.75 16.12,-282.75"/>
<text text-anchor="middle" x="54.12" y="-310.45" font-family="Times,serif" font-size="14.00" fill="red">declaration</text>
<text text-anchor="middle" x="54.12" y="-293.95" font-family="Times,serif" font-size="14.00" fill="red">statement</text>
<polyline fill="none" stroke="red" points="92.12,-282.75 92.12,-331.75"/>
<text text-anchor="middle" x="141" y="-314.45" font-family="Times,serif" font-size="14.00" fill="red">foo</text>
<polyline fill="none" stroke="red" points="92.12,-307.25 189.88,-307.25"/>
<text text-anchor="middle" x="141" y="-289.95" font-family="Times,serif" font-size="14.00" fill="red">await bar(args)</text>
</g>
<!-- use_async_directive&#45;&gt;directive_target_stmt -->
<g id="edge4" class="edge">
<title>use_async_directive&#45;&gt;directive_target_stmt</title>
<path fill="none" stroke="red" d="M106.36,-397.43C105.81,-382.9 105.01,-361.55 104.32,-343.38"/>
<polygon fill="red" stroke="red" points="107.83,-343.38 103.95,-333.52 100.83,-343.65 107.83,-343.38"/>
<text text-anchor="middle" x="117.62" y="-365.7" font-family="Times,serif" font-size="14.00" fill="red">next</text>
</g>
<!-- subseq_stmt -->
<g id="node6" class="node">
<title>subseq_stmt</title>
<polygon fill="none" stroke="blue" points="68.75,-143.5 68.75,-217 137.25,-217 137.25,-143.5 68.75,-143.5"/>
<text text-anchor="middle" x="103" y="-199.7" font-family="Times,serif" font-size="14.00" fill="blue">statement</text>
<polyline fill="none" stroke="blue" points="68.75,-192.5 137.25,-192.5"/>
<text text-anchor="middle" x="103" y="-175.2" font-family="Times,serif" font-size="14.00" fill="blue">statement</text>
<polyline fill="none" stroke="blue" points="68.75,-168 137.25,-168"/>
<text text-anchor="middle" x="103" y="-150.7" font-family="Times,serif" font-size="14.00" fill="blue">...</text>
</g>
<!-- directive_target_stmt&#45;&gt;subseq_stmt -->
<g id="edge5" class="edge">
<title>directive_target_stmt&#45;&gt;subseq_stmt</title>
<path fill="none" stroke="blue" d="M103,-282.44C103,-267.26 103,-247.06 103,-228.71"/>
<polygon fill="blue" stroke="blue" points="106.5,-228.79 103,-218.79 99.5,-228.79 106.5,-228.79"/>
<text text-anchor="middle" x="114.62" y="-238.7" font-family="Times,serif" font-size="14.00" fill="blue">next</text>
</g>
<!-- module_out -->
<g id="node7" class="node">
<title>module_out</title>
<ellipse fill="none" stroke="black" cx="286" cy="-525.57" rx="39.07" ry="39.07"/>
<text text-anchor="middle" x="286" y="-520.52" font-family="Times,serif" font-size="14.00">module</text>
</g>
<!-- handler0 -->
<g id="node8" class="node">
<title>handler0</title>
<polygon fill="none" stroke="green" points="214.38,-397.5 214.38,-433.5 357.62,-433.5 357.62,-397.5 214.38,-397.5"/>
<text text-anchor="middle" x="249.38" y="-410.45" font-family="Times,serif" font-size="14.00" fill="green">handler_0</text>
<polyline fill="none" stroke="green" points="284.38,-397.5 284.38,-433.5"/>
<text text-anchor="middle" x="300.62" y="-410.45" font-family="Times,serif" font-size="14.00" fill="green">ctx</text>
<polyline fill="none" stroke="green" points="316.88,-397.5 316.88,-433.5"/>
<text text-anchor="middle" x="337.25" y="-410.45" font-family="Times,serif" font-size="14.00" fill="green">state</text>
</g>
<!-- module_out&#45;&gt;handler0 -->
<g id="edge6" class="edge">
<title>module_out&#45;&gt;handler0</title>
<path fill="none" stroke="black" d="M286,-486.16C286,-472.65 286,-457.7 286,-445.13"/>
<polygon fill="black" stroke="black" points="289.5,-445.45 286,-435.45 282.5,-445.45 289.5,-445.45"/>
<text text-anchor="middle" x="309.25" y="-455.2" font-family="Times,serif" font-size="14.00">has item</text>
</g>
<!-- handler1 -->
<g id="node11" class="node">
<title>handler1</title>
<polygon fill="none" stroke="green" points="375.38,-397.5 375.38,-433.5 518.62,-433.5 518.62,-397.5 375.38,-397.5"/>
<text text-anchor="middle" x="410.38" y="-410.45" font-family="Times,serif" font-size="14.00" fill="green">handler_1</text>
<polyline fill="none" stroke="green" points="445.38,-397.5 445.38,-433.5"/>
<text text-anchor="middle" x="461.62" y="-410.45" font-family="Times,serif" font-size="14.00" fill="green">ctx</text>
<polyline fill="none" stroke="green" points="477.88,-397.5 477.88,-433.5"/>
<text text-anchor="middle" x="498.25" y="-410.45" font-family="Times,serif" font-size="14.00" fill="green">state</text>
</g>
<!-- module_out&#45;&gt;handler1 -->
<g id="edge9" class="edge">
<title>module_out&#45;&gt;handler1</title>
<path fill="none" stroke="black" d="M318.19,-502.96C345.2,-484.83 383.72,-458.98 411.59,-440.27"/>
<polygon fill="black" stroke="black" points="413.36,-443.3 419.71,-434.82 409.46,-437.48 413.36,-443.3"/>
<text text-anchor="middle" x="413.25" y="-455.2" font-family="Times,serif" font-size="14.00">has item</text>
</g>
<!-- parent_stmt0 -->
<g id="node9" class="node">
<title>parent_stmt0</title>
<polygon fill="none" stroke="purple" points="223.75,-270.5 223.75,-344 292.25,-344 292.25,-270.5 223.75,-270.5"/>
<text text-anchor="middle" x="258" y="-326.7" font-family="Times,serif" font-size="14.00" fill="purple">...</text>
<polyline fill="none" stroke="purple" points="223.75,-319.5 292.25,-319.5"/>
<text text-anchor="middle" x="258" y="-302.2" font-family="Times,serif" font-size="14.00" fill="purple">statement</text>
<polyline fill="none" stroke="purple" points="223.75,-295 292.25,-295"/>
<text text-anchor="middle" x="258" y="-277.7" font-family="Times,serif" font-size="14.00" fill="purple">statement</text>
</g>
<!-- handler0&#45;&gt;parent_stmt0 -->
<g id="edge7" class="edge">
<title>handler0&#45;&gt;parent_stmt0</title>
<path fill="none" stroke="purple" stroke-dasharray="5,2" d="M281.5,-397.43C278.47,-385.91 274.3,-370.11 270.32,-355.01"/>
<polygon fill="purple" stroke="purple" points="273.79,-354.45 267.86,-345.67 267.03,-356.23 273.79,-354.45"/>
<text text-anchor="middle" x="300.38" y="-365.7" font-family="Times,serif" font-size="14.00" fill="purple">has body</text>
</g>
<!-- cont_stmt0 -->
<g id="node10" class="node">
<title>cont_stmt0</title>
<polygon fill="none" stroke="red" points="213.88,-143.5 213.88,-217 338.12,-217 338.12,-143.5 213.88,-143.5"/>
<text text-anchor="middle" x="255.62" y="-183.45" font-family="Times,serif" font-size="14.00" fill="red">return</text>
<text text-anchor="middle" x="255.62" y="-166.95" font-family="Times,serif" font-size="14.00" fill="red">continuation</text>
<polyline fill="none" stroke="red" points="297.38,-143.5 297.38,-217"/>
<text text-anchor="middle" x="317.75" y="-199.7" font-family="Times,serif" font-size="14.00" fill="red">bar</text>
<polyline fill="none" stroke="red" points="297.38,-192.5 338.12,-192.5"/>
<text text-anchor="middle" x="317.75" y="-175.2" font-family="Times,serif" font-size="14.00" fill="red">args</text>
<polyline fill="none" stroke="red" points="297.38,-168 338.12,-168"/>
<text text-anchor="middle" x="317.75" y="-150.7" font-family="Times,serif" font-size="14.00" fill="red">state</text>
</g>
<!-- parent_stmt0&#45;&gt;cont_stmt0 -->
<g id="edge8" class="edge">
<title>parent_stmt0&#45;&gt;cont_stmt0</title>
<path fill="none" stroke="red" d="M263.21,-270.09C265.07,-257.14 267.2,-242.33 269.19,-228.57"/>
<polygon fill="red" stroke="red" points="272.63,-229.22 270.59,-218.82 265.7,-228.22 272.63,-229.22"/>
<text text-anchor="middle" x="279.62" y="-238.7" font-family="Times,serif" font-size="14.00" fill="red">next</text>
</g>
<!-- state_stmt -->
<g id="node12" class="node">
<title>state_stmt</title>
<polygon fill="none" stroke="red" points="310,-286.75 310,-327.75 438,-327.75 438,-286.75 310,-286.75"/>
<text text-anchor="middle" x="348" y="-310.45" font-family="Times,serif" font-size="14.00" fill="red">declaration</text>
<text text-anchor="middle" x="348" y="-293.95" font-family="Times,serif" font-size="14.00" fill="red">statement</text>
<polyline fill="none" stroke="red" points="386,-286.75 386,-327.75"/>
<text text-anchor="middle" x="412" y="-302.45" font-family="Times,serif" font-size="14.00" fill="red">...state</text>
</g>
<!-- handler1&#45;&gt;state_stmt -->
<g id="edge10" class="edge">
<title>handler1:id&#45;&gt;state_stmt</title>
<path fill="none" stroke="black" d="M410,-397C410,-376.21 401.41,-354.55 392.62,-337.84"/>
<polygon fill="black" stroke="black" points="395.87,-336.47 387.94,-329.44 389.75,-339.88 395.87,-336.47"/>
<text text-anchor="middle" x="431.38" y="-365.7" font-family="Times,serif" font-size="14.00">has body</text>
</g>
<!-- handler1&#45;&gt;state_stmt -->
<g id="edge12" class="edge">
<title>handler1:decl_state&#45;&gt;state_stmt:decl_state</title>
<path fill="none" stroke="black" d="M498,-397C498,-365.98 467.62,-371.3 452,-344.5 446.21,-334.56 449.97,-321.62 448.29,-313.9"/>
<polygon fill="black" stroke="black" points="450.4,-311.11 440.23,-308.13 446.32,-316.8 450.4,-311.11"/>
<text text-anchor="middle" x="505.5" y="-365.7" font-family="Times,serif" font-size="14.00">from</text>
</g>
<!-- decl_stmt -->
<g id="node13" class="node">
<title>decl_stmt</title>
<polygon fill="none" stroke="red" points="359.62,-155.75 359.62,-204.75 494.38,-204.75 494.38,-155.75 359.62,-155.75"/>
<text text-anchor="middle" x="397.62" y="-183.45" font-family="Times,serif" font-size="14.00" fill="red">declaration</text>
<text text-anchor="middle" x="397.62" y="-166.95" font-family="Times,serif" font-size="14.00" fill="red">statement</text>
<polyline fill="none" stroke="red" points="435.62,-155.75 435.62,-204.75"/>
<text text-anchor="middle" x="465" y="-187.45" font-family="Times,serif" font-size="14.00" fill="red">foo</text>
<polyline fill="none" stroke="red" points="435.62,-180.25 494.38,-180.25"/>
<text text-anchor="middle" x="465" y="-162.95" font-family="Times,serif" font-size="14.00" fill="red">ctx.args</text>
</g>
<!-- handler1&#45;&gt;decl_stmt -->
<g id="edge13" class="edge">
<title>handler1:decl_ctx&#45;&gt;decl_stmt:decl_foo_args</title>
<path fill="none" stroke="black" d="M462,-397C462,-298.49 586.81,-178.55 506.46,-168.88"/>
<polygon fill="black" stroke="black" points="506.69,-165.38 496.51,-168.33 506.31,-172.37 506.69,-165.38"/>
<text text-anchor="middle" x="516.5" y="-302.2" font-family="Times,serif" font-size="14.00">from</text>
</g>
<!-- state_stmt&#45;&gt;decl_stmt -->
<g id="edge11" class="edge">
<title>state_stmt&#45;&gt;decl_stmt</title>
<path fill="none" stroke="red" d="M382.4,-286.44C390.42,-267.51 402.7,-238.57 412.34,-215.83"/>
<polygon fill="red" stroke="red" points="415.56,-217.21 416.24,-206.63 409.11,-214.47 415.56,-217.21"/>
<text text-anchor="middle" x="414.62" y="-238.7" font-family="Times,serif" font-size="14.00" fill="red">next</text>
</g>
<!-- subseq_stmt1 -->
<g id="node14" class="node">
<title>subseq_stmt1</title>
<polygon fill="none" stroke="blue" points="392.75,-16.5 392.75,-90 461.25,-90 461.25,-16.5 392.75,-16.5"/>
<text text-anchor="middle" x="427" y="-72.7" font-family="Times,serif" font-size="14.00" fill="blue">statement</text>
<polyline fill="none" stroke="blue" points="392.75,-65.5 461.25,-65.5"/>
<text text-anchor="middle" x="427" y="-48.2" font-family="Times,serif" font-size="14.00" fill="blue">statement</text>
<polyline fill="none" stroke="blue" points="392.75,-41 461.25,-41"/>
<text text-anchor="middle" x="427" y="-23.7" font-family="Times,serif" font-size="14.00" fill="blue">...</text>
</g>
<!-- decl_stmt&#45;&gt;subseq_stmt1 -->
<g id="edge14" class="edge">
<title>decl_stmt&#45;&gt;subseq_stmt1</title>
<path fill="none" stroke="blue" d="M427,-155.44C427,-140.26 427,-120.06 427,-101.71"/>
<polygon fill="blue" stroke="blue" points="430.5,-101.79 427,-91.79 423.5,-101.79 430.5,-101.79"/>
<text text-anchor="middle" x="438.62" y="-111.7" font-family="Times,serif" font-size="14.00" fill="blue">next</text>
</g>
<!-- faaasc&#45;&gt;module_out -->
<g id="edge16" class="edge">
<title>faaasc&#45;&gt;module_out</title>
<path fill="none" stroke="black" d="M268.16,-639.82C271.12,-621.02 274.9,-597.04 278.22,-575.99"/>
<polygon fill="black" stroke="black" points="281.67,-576.57 279.77,-566.15 274.75,-575.48 281.67,-576.57"/>
<text text-anchor="middle" x="290.25" y="-608.34" font-family="Times,serif" font-size="14.00">output</text>
</g>
</g>
</svg>
